PathFileType	4	(X/Y/Z)	48_2_58_p1_0-239.trc
DataRate	CameraRate	NumFrames	NumMarkers	Units	OrigDataRate	OrigDataStartFrame	OrigNumFrames
53.0	53.0	4	27	m	53.0	0	240
Frame#	Time	RHip			RKnee			RAnkle			RBigToe			RSmallToe			RHeel			LHip			LKnee			LAnkle			LBigToe			LSmallToe			LHeel			Neck			Head			Nose			RShoulder			RElbow			RWrist			RThumb			RIndex			RPinky			LShoulder			LElbow			LWrist			LThumb			LIndex			LPinky			
		X1	Y1	Z1	X2	Y2	Z2	X3	Y3	Z3	X4	Y4	Z4	X5	Y5	Z5	X6	Y6	Z6	X7	Y7	Z7	X8	Y8	Z8	X9	Y9	Z9	X10	Y10	Z10	X11	Y11	Z11	X12	Y12	Z12	X13	Y13	Z13	X14	Y14	Z14	X15	Y15	Z15	X16	Y16	Z16	X17	Y17	Z17	X18	Y18	Z18	X19	Y19	Z19	X20	Y20	Z20	X21	Y21	Z21	X22	Y22	Z22	X23	Y23	Z23	X24	Y24	Z24	X25	Y25	Z25	X26	Y26	Z26	X27	Y27	Z27	
0	0.0	0.17711378902893385	0.39965398409934416	0.6600901626210268	0.160990395473428	0.5294884674431031	1.084186147575199	0.15963746024239958	0.6782008531856519	1.5245876443988393	0.0917876004116317	0.47849509486248176	1.5620395174839714	0.16381268503329074	0.4843546308840558	1.5633636813499492	0.1405854931250702	0.7909561978150221	1.5940231080911227	-0.05268018480437343	0.4687669042579178	0.6494273959956017	-0.04637546749458713	0.6141519003728253	1.0903881203646393	-0.049870834146807735	0.6727839513029114	1.4883387746892522	-0.06322660749983902	0.46646203564988165	1.5177549699857584	-0.11892337699793185	0.5411016686036635	1.5366689722665599	-0.04285503291494178	0.7163560069699195	1.5572376099391851	0.11578273500501154	0.3895428680278336	-0.019479352129344985	0.1360476419673061	0.3520652920508754	-0.27467833719908136	0.10093664902435766	0.24764456441405183	-0.13310622576852302	0.27505490343280636	0.3484548538118116	0.12780472560642833	0.27489859763393687	0.33058576027013387	0.4050986146909475	0.10619359297062002	0.25043902742614127	0.617755476197015	0.03408879482620216	0.2868928564867873	0.7154857218469214	0.036630783547943406	0.31467250479556047	0.7268963632414481	0.050591712768754814	0.3349270286573077	0.7270567085641674	-0.06456468014009682	0.42406129161892775	0.07385800345607905	-0.11226048351018697	0.4050421225751998	0.3603293523286536	-0.0046926052336034455	0.2677712488127947	0.5872481365814602	0.07620101233758413	0.2886845914035383	0.6724033703515024	0.07526382513006592	0.2735640272966306	0.7109497122708074	0.03795407994330627	0.3124700461324269	0.7220124497077972
1	0.018867924528301886	0.17723036595147132	0.39983667307613546	0.6599428502459636	0.1651518591568178	0.5408904955167742	1.0846855175684575	0.15953204179545935	0.677466818281939	1.528620245443025	0.09222851217246616	0.47897367526421947	1.5607964892078405	0.16477566828116896	0.48482882270216576	1.5623763004841553	0.14180869098206084	0.7900585365770268	1.5933373472748762	-0.052695164559012686	0.4684022530975427	0.6492948763213551	-0.04644449459059889	0.6139285432039259	1.0902223663827384	-0.04969909926914356	0.6736753723601863	1.4846198661053087	-0.06318205293057737	0.4665356501764727	1.517548999846874	-0.11873416802065805	0.5411212291597539	1.5365322962311627	-0.03845296135957551	0.7298805463513748	1.5642520175670562	0.1157634890754074	0.38945288169332853	-0.019518250197118243	0.13609921998920166	0.35192740104880366	-0.2747505246213568	0.10323276073893255	0.23651880276454876	-0.13207644217829584	0.2750262077493771	0.34881312620100907	0.12772778321539013	0.27491947199078426	0.3305666613525079	0.40505919995193934	0.11039147993206866	0.26092417541649415	0.6198062405179683	0.031003316949878845	0.28476352881891503	0.7146516097929584	0.03298610212132989	0.31360353253482076	0.7264190425097478	0.046665553343115625	0.33400578533641734	0.7267783789172437	-0.064563189180427	0.4238235101517034	0.07385256019115712	-0.1120648710272111	0.4059143835858959	0.36372267852311435	-0.004610028112552066	0.26792533322262896	0.5874619228880521	0.07560921861614327	0.2879362953482122	0.6802585469928542	0.06855948179382683	0.28511027400081845	0.7125983448167281	0.03788671077615053	0.3129831173711735	0.722241204755822
2	0.03773584905660377	0.18218508271935432	0.4111570070697024	0.6622728184513876	0.1598905385443089	0.5283461099406072	1.0807657906378456	0.15487390761252354	0.6772627664218477	1.5237409793837333	0.09223868924161381	0.4791351174614434	1.5608124636632748	0.1697758047364687	0.49767943020894795	1.5686705431228998	0.1408255924931578	0.7909927458617864	1.5980882107638168	-0.05265628128139786	0.4683542184606813	0.6492598642974525	-0.04738262411484127	0.6142414647946336	1.0942198828570509	-0.049646272663596384	0.6735408951784827	1.4845153482194702	-0.0632281798053832	0.46652031388504367	1.5175205636005091	-0.11881512317893562	0.5412350991944533	1.5366238994497137	-0.03840079201194752	0.7297377016676417	1.5639249780502216	0.11575905170545936	0.3893904798578589	-0.019532308139568483	0.13615004519339044	0.351853573964102	-0.2748075851127846	0.10331815108318612	0.2366378345082592	-0.13213870795744634	0.2750366889257026	0.3486884011973403	0.1277457700826523	0.2749556876676633	0.3306467138682103	0.40509193686040573	0.11035146566107103	0.26104493166475407	0.6197977917563142	0.03101397232057306	0.28475288351843364	0.7147895683556229	0.03306419184977737	0.31323182487205103	0.7261526119377418	0.046594267396134606	0.3344397488099626	0.7264447158235104	-0.06453265650297509	0.4240713688405206	0.07394187131940518	-0.11226756266719713	0.40469725831711223	0.35686137656648215	-0.004644449415430071	0.26790828805121275	0.5873048368924019	0.07534836271313845	0.2875622579606256	0.6803230007190263	0.06588897845800401	0.29750373096110805	0.7150334631388333	0.03350081582795309	0.30178994905019096	0.7195150186156207
3	0.05660377358490566	0.17728682730245543	0.3997581520682556	0.6599404303893539	0.15950782051153073	0.5281278243644835	1.080940840631015	0.15964708744628298	0.6785423777559955	1.5245683582794867	0.09170901167937952	0.4780239829504549	1.5548448476159469	0.16522861468009045	0.485230741315117	1.561700719019238	0.14206190350895603	0.7905728635162166	1.5936720061265552	-0.05262551885194157	0.4678315480191874	0.6492107604568593	-0.04732108133404517	0.6136932355174918	1.0982996619715746	-0.0496663917775617	0.6734512909479661	1.4845492794717672	-0.06329993828520077	0.4659573460876502	1.5172482047673344	-0.11884574555205542	0.5418001893340137	1.5328231894047835	-0.038337918242454826	0.7299123623569204	1.5641197104621225	0.11583211957371178	0.3894224020012349	-0.019515139186239778	0.13624282410799038	0.3507660106308662	-0.27816955680458594	0.10712922635306424	0.2368144539310191	-0.13212567811160586	0.2752100018872711	0.3489944889097217	0.12775268776380644	0.27492768951146357	0.3306459884477478	0.40510985890463636	0.10607054645735431	0.25094104821188473	0.6178082575055862	0.03168476259372735	0.2713406883454008	0.71183725864989	0.0332590773998869	0.3128960032974126	0.725687157150089	0.046246807477181406	0.3353996131617266	0.7260831239112103	-0.06447362096369202	0.42385066490948853	0.07384255617498131	-0.11218391541148828	0.40499425049216525	0.3567889960521417	-0.0046042028547001795	0.26800153146759087	0.5843324117971025	0.07462811130281116	0.2850462106521501	0.6840123238035201	0.06592719446383646	0.2959977739581213	0.7178238681171336	0.03328442864048462	0.30206191900243995	0.7158265823054293
